<svg id="Layer_1" data-name="Layer 1" xmlns="http://www.w3.org/2000/svg" viewBox="0 0 33 26.23"><defs><style>.cls-1{fill:none;stroke:#000;stroke-miterlimit:10}.cls-2{font-size:18px;font-family:Myriad Pro}.cls-3{font-size:1px;font-family:Times New Roman}</style></defs><title>Whose News Icon</title><path class="cls-1" d="M.5.59L17 3.47 32.5.72v22.01l-15.62 2.99L.5 22.29V.59z"/><text class="cls-2" transform="translate(13.25 20.72)">?</text><text class="cls-3" transform="rotate(7 -49.819 32.012)">BREAKING:<tspan x=".12" y="1.2">W</tspan><tspan x=".99" y="1.2">e just receive news of </tspan><tspan x=".24" y="2.4">a guy who is trying to </tspan><tspan x=".36" y="3.6">read some of the </tspan><tspan x=".49" y="4.8">smallest writing </tspan><tspan x=".61" y="6">imaginable on a logo for </tspan><tspan x=".73" y="7.2">an extention.</tspan><tspan x="5.89" y="7.2"> </tspan><tspan x="6.13" y="7.2">This is an </tspan><tspan x=".85" y="8.4">odd stor</tspan><tspan x="4.1" y="8.4">y</tspan><tspan x="4.53" y="8.4">.</tspan><tspan x="4.78" y="8.4"> </tspan><tspan x="5" y="8.4">Y</tspan><tspan x="5.62" y="8.4">es other </tspan><tspan x=".97" y="9.6">ancho</tspan><tspan x="3.36" y="9.6">r</tspan><tspan x="3.65" y="9.6">, on the scene </tspan><tspan x="1.09" y="10.8">no</tspan><tspan x="2.09" y="10.8">w</tspan><tspan x="2.75" y="10.8">, we have Fake </tspan><tspan x="1.21" y="12">News investigator Joe </tspan><tspan x="1.34" y="13.2">Su</tspan></text><text class="cls-3" transform="matrix(-.99 .12 .12 .99 31.22 6.32)">BREAKING:<tspan x=".12" y="1.2">W</tspan><tspan x=".99" y="1.2">e just receive news of </tspan><tspan x=".24" y="2.4">a guy who is trying to </tspan><tspan x=".36" y="3.6">read some of the </tspan><tspan x=".49" y="4.8">smallest writing </tspan><tspan x=".61" y="6">imaginable on a logo for </tspan><tspan x=".73" y="7.2">an extention.</tspan><tspan x="5.89" y="7.2"> </tspan><tspan x="6.13" y="7.2">This is an </tspan><tspan x=".85" y="8.4">odd stor</tspan><tspan x="4.1" y="8.4">y</tspan><tspan x="4.53" y="8.4">.</tspan><tspan x="4.78" y="8.4"> </tspan><tspan x="5" y="8.4">Y</tspan><tspan x="5.62" y="8.4">es other </tspan><tspan x=".97" y="9.6">ancho</tspan><tspan x="3.36" y="9.6">r</tspan><tspan x="3.65" y="9.6">, on the scene </tspan><tspan x="1.09" y="10.8">no</tspan><tspan x="2.09" y="10.8">w</tspan><tspan x="2.75" y="10.8">, we have Fake </tspan><tspan x="1.21" y="12">News investigator Joe </tspan><tspan x="1.33" y="13.2">Su</tspan></text></svg>